<svg width="614" height="244" viewBox="0 0 614 244" fill="none" xmlns="http://www.w3.org/2000/svg">
<path d="M1.05611 10.8182H2.12997C2.16122 11.1136 2.26207 11.3636 2.43253 11.5682C2.60582 11.7699 2.83026 11.9233 3.10582 12.0284C3.38139 12.1307 3.68679 12.1818 4.02202 12.1818C4.38565 12.1818 4.71236 12.1207 5.00213 11.9986C5.2919 11.8764 5.52202 11.6946 5.69247 11.4531C5.86293 11.2088 5.94815 10.9062 5.94815 10.5455C5.94815 10.2301 5.87429 9.9375 5.72656 9.66761C5.57884 9.39489 5.34162 9.17472 5.01491 9.0071C4.68821 8.83949 4.25497 8.75568 3.7152 8.75568H3.01634V7.90341L5.19815 5.27841V5.21023H1.48224V4.27273H6.64702V5.03977L4.31179 7.86932V7.9375C4.68679 7.95455 5.03622 8.03125 5.36009 8.16761C5.68679 8.30398 5.97088 8.48864 6.21236 8.72159C6.45668 8.95455 6.64702 9.22585 6.78338 9.53551C6.91974 9.84517 6.98793 10.1818 6.98793 10.5455C6.98793 11.0426 6.86009 11.4858 6.6044 11.875C6.35156 12.2614 6.00071 12.5653 5.55185 12.7869C5.10582 13.0085 4.5902 13.1193 4.00497 13.1193C3.48793 13.1193 3.01207 13.0284 2.57741 12.8466C2.14276 12.6648 1.78906 12.402 1.51634 12.0582C1.24361 11.7145 1.0902 11.3011 1.05611 10.8182ZM11.5742 13.1193C10.9322 13.1193 10.3853 12.9446 9.93359 12.5952C9.48189 12.2429 9.13672 11.733 8.89808 11.0653C8.65945 10.3949 8.54013 9.58523 8.54013 8.63636C8.54013 7.69318 8.65945 6.88778 8.89808 6.22017C9.13956 5.54972 9.48615 5.03835 9.93786 4.68608C10.3924 4.33097 10.9379 4.15341 11.5742 4.15341C12.2106 4.15341 12.7546 4.33097 13.2063 4.68608C13.6609 5.03835 14.0075 5.54972 14.2461 6.22017C14.4876 6.88778 14.6083 7.69318 14.6083 8.63636C14.6083 9.58523 14.489 10.3949 14.2504 11.0653C14.0117 11.733 13.6665 12.2429 13.2148 12.5952C12.7631 12.9446 12.2163 13.1193 11.5742 13.1193ZM11.5742 12.1818C12.2106 12.1818 12.7049 11.875 13.0572 11.2614C13.4094 10.6477 13.5856 9.77273 13.5856 8.63636C13.5856 7.88068 13.5046 7.23722 13.3427 6.70597C13.1836 6.17472 12.9535 5.76989 12.6523 5.49148C12.354 5.21307 11.9947 5.07386 11.5742 5.07386C10.9435 5.07386 10.4506 5.38494 10.0955 6.0071C9.74041 6.62642 9.56286 7.50284 9.56286 8.63636C9.56286 9.39205 9.6424 10.0341 9.80149 10.5625C9.96058 11.0909 10.1893 11.4929 10.4876 11.7685C10.7887 12.044 11.1509 12.1818 11.5742 12.1818ZM16.381 4.27273H17.6424L20.6083 11.517H20.7106L23.6765 4.27273H24.9379V13H23.9492V6.36932H23.864L21.1367 13H20.1822L17.4549 6.36932H17.3697V13H16.381V4.27273Z" fill="#1C1C1C" fill-opacity="0.4"/>
<path d="M1.462 74V73.233L4.34268 70.0795C4.68075 69.7102 4.95916 69.3892 5.17791 69.1165C5.39666 68.8409 5.55859 68.5824 5.66371 68.3409C5.77166 68.0966 5.82564 67.8409 5.82564 67.5739C5.82564 67.267 5.75178 67.0014 5.60405 66.777C5.45916 66.5526 5.2603 66.3793 5.00746 66.2571C4.75462 66.1349 4.47053 66.0739 4.15518 66.0739C3.81996 66.0739 3.52734 66.1435 3.27734 66.2827C3.03018 66.419 2.83842 66.6108 2.70206 66.858C2.56854 67.1051 2.50178 67.3949 2.50178 67.7273H1.49609C1.49609 67.2159 1.61399 66.767 1.84979 66.3807C2.08558 65.9943 2.40661 65.6932 2.81286 65.4773C3.22195 65.2614 3.68075 65.1534 4.18928 65.1534C4.70064 65.1534 5.15376 65.2614 5.54865 65.4773C5.94354 65.6932 6.2532 65.9844 6.47763 66.3509C6.70206 66.7173 6.81428 67.125 6.81428 67.5739C6.81428 67.8949 6.75604 68.2088 6.63956 68.5156C6.52592 68.8196 6.32706 69.1591 6.04297 69.5341C5.76172 69.9062 5.37109 70.3608 4.87109 70.8977L2.91087 72.9943V73.0625H6.96768V74H1.462ZM11.5742 74.1193C10.9322 74.1193 10.3853 73.9446 9.93359 73.5952C9.48189 73.2429 9.13672 72.733 8.89808 72.0653C8.65945 71.3949 8.54013 70.5852 8.54013 69.6364C8.54013 68.6932 8.65945 67.8878 8.89808 67.2202C9.13956 66.5497 9.48615 66.0384 9.93786 65.6861C10.3924 65.331 10.9379 65.1534 11.5742 65.1534C12.2106 65.1534 12.7546 65.331 13.2063 65.6861C13.6609 66.0384 14.0075 66.5497 14.2461 67.2202C14.4876 67.8878 14.6083 68.6932 14.6083 69.6364C14.6083 70.5852 14.489 71.3949 14.2504 72.0653C14.0117 72.733 13.6665 73.2429 13.2148 73.5952C12.7631 73.9446 12.2163 74.1193 11.5742 74.1193ZM11.5742 73.1818C12.2106 73.1818 12.7049 72.875 13.0572 72.2614C13.4094 71.6477 13.5856 70.7727 13.5856 69.6364C13.5856 68.8807 13.5046 68.2372 13.3427 67.706C13.1836 67.1747 12.9535 66.7699 12.6523 66.4915C12.354 66.2131 11.9947 66.0739 11.5742 66.0739C10.9435 66.0739 10.4506 66.3849 10.0955 67.0071C9.74041 67.6264 9.56286 68.5028 9.56286 69.6364C9.56286 70.392 9.6424 71.0341 9.80149 71.5625C9.96058 72.0909 10.1893 72.4929 10.4876 72.7685C10.7887 73.044 11.1509 73.1818 11.5742 73.1818ZM16.381 65.2727H17.6424L20.6083 72.517H20.7106L23.6765 65.2727H24.9379V74H23.9492V67.3693H23.864L21.1367 74H20.1822L17.4549 67.3693H17.3697V74H16.381V65.2727Z" fill="#1C1C1C" fill-opacity="0.4"/>
<path d="M6.22621 126.273V135H5.16939V127.807H5.10121C5.06143 127.886 4.95916 127.977 4.79439 128.08C4.62962 128.179 4.41655 128.267 4.15518 128.344C3.89382 128.418 3.59553 128.455 3.2603 128.455V127.568C3.59837 127.568 3.89098 127.507 4.13814 127.385C4.3853 127.263 4.59126 127.119 4.75604 126.955C4.92365 126.79 5.05007 126.641 5.1353 126.507C5.22337 126.374 5.2745 126.295 5.28871 126.273H6.22621ZM11.5742 135.119C10.9322 135.119 10.3853 134.945 9.93359 134.595C9.48189 134.243 9.13672 133.733 8.89808 133.065C8.65945 132.395 8.54013 131.585 8.54013 130.636C8.54013 129.693 8.65945 128.888 8.89808 128.22C9.13956 127.55 9.48615 127.038 9.93786 126.686C10.3924 126.331 10.9379 126.153 11.5742 126.153C12.2106 126.153 12.7546 126.331 13.2063 126.686C13.6609 127.038 14.0075 127.55 14.2461 128.22C14.4876 128.888 14.6083 129.693 14.6083 130.636C14.6083 131.585 14.489 132.395 14.2504 133.065C14.0117 133.733 13.6665 134.243 13.2148 134.595C12.7631 134.945 12.2163 135.119 11.5742 135.119ZM11.5742 134.182C12.2106 134.182 12.7049 133.875 13.0572 133.261C13.4094 132.648 13.5856 131.773 13.5856 130.636C13.5856 129.881 13.5046 129.237 13.3427 128.706C13.1836 128.175 12.9535 127.77 12.6523 127.491C12.354 127.213 11.9947 127.074 11.5742 127.074C10.9435 127.074 10.4506 127.385 10.0955 128.007C9.74041 128.626 9.56286 129.503 9.56286 130.636C9.56286 131.392 9.6424 132.034 9.80149 132.562C9.96058 133.091 10.1893 133.493 10.4876 133.768C10.7887 134.044 11.1509 134.182 11.5742 134.182ZM16.381 126.273H17.6424L20.6083 133.517H20.7106L23.6765 126.273H24.9379V135H23.9492V128.369H23.864L21.1367 135H20.1822L17.4549 128.369H17.3697V135H16.381V126.273Z" fill="#1C1C1C" fill-opacity="0.4"/>
<path d="M22.25 196.119C21.608 196.119 21.0611 195.945 20.6094 195.595C20.1577 195.243 19.8125 194.733 19.5739 194.065C19.3352 193.395 19.2159 192.585 19.2159 191.636C19.2159 190.693 19.3352 189.888 19.5739 189.22C19.8153 188.55 20.1619 188.038 20.6136 187.686C21.0682 187.331 21.6136 187.153 22.25 187.153C22.8864 187.153 23.4304 187.331 23.8821 187.686C24.3366 188.038 24.6832 188.55 24.9219 189.22C25.1634 189.888 25.2841 190.693 25.2841 191.636C25.2841 192.585 25.1648 193.395 24.9261 194.065C24.6875 194.733 24.3423 195.243 23.8906 195.595C23.4389 195.945 22.892 196.119 22.25 196.119ZM22.25 195.182C22.8864 195.182 23.3807 194.875 23.733 194.261C24.0852 193.648 24.2614 192.773 24.2614 191.636C24.2614 190.881 24.1804 190.237 24.0185 189.706C23.8594 189.175 23.6293 188.77 23.3281 188.491C23.0298 188.213 22.6705 188.074 22.25 188.074C21.6193 188.074 21.1264 188.385 20.7713 189.007C20.4162 189.626 20.2386 190.503 20.2386 191.636C20.2386 192.392 20.3182 193.034 20.4773 193.562C20.6364 194.091 20.8651 194.493 21.1634 194.768C21.4645 195.044 21.8267 195.182 22.25 195.182Z" fill="#1C1C1C" fill-opacity="0.4"/>
<line x1="42.5" y1="15.5" x2="613.5" y2="15.5" stroke="#1C1C1C" stroke-opacity="0.05" stroke-linecap="round"/>
<line x1="42.5" y1="82.1666" x2="613.5" y2="82.1666" stroke="#1C1C1C" stroke-opacity="0.05" stroke-linecap="round"/>
<line x1="42.5" y1="148.833" x2="613.5" y2="148.833" stroke="#1C1C1C" stroke-opacity="0.05" stroke-linecap="round"/>
<line x1="42.5" y1="215.5" x2="613.5" y2="215.5" stroke="#1C1C1C" stroke-opacity="0.2" stroke-linecap="round"/>
<path d="M76.7607 230.273H77.8175V236.511C77.8175 237.068 77.7153 237.541 77.5107 237.93C77.3062 238.32 77.0178 238.615 76.6457 238.817C76.2735 239.018 75.8346 239.119 75.3289 239.119C74.8516 239.119 74.4269 239.033 74.0548 238.859C73.6826 238.683 73.39 238.433 73.1769 238.109C72.9639 237.786 72.8573 237.401 72.8573 236.955H73.8971C73.8971 237.202 73.9582 237.418 74.0803 237.602C74.2053 237.784 74.3758 237.926 74.5917 238.028C74.8076 238.131 75.0533 238.182 75.3289 238.182C75.6329 238.182 75.8914 238.118 76.1045 237.99C76.3175 237.862 76.4795 237.675 76.5903 237.428C76.7039 237.178 76.7607 236.872 76.7607 236.511V230.273ZM82.2707 239.136C81.7252 239.136 81.2437 238.999 80.8261 238.723C80.4085 238.445 80.0818 238.053 79.846 237.547C79.6102 237.038 79.4923 236.438 79.4923 235.744C79.4923 235.057 79.6102 234.46 79.846 233.955C80.0818 233.449 80.4099 233.058 80.8303 232.783C81.2508 232.507 81.7366 232.369 82.2877 232.369C82.7139 232.369 83.0505 232.44 83.2977 232.582C83.5477 232.722 83.738 232.881 83.8687 233.06C84.0022 233.236 84.1059 233.381 84.1798 233.494H84.265V232.455H85.2707V239H84.2991V237.994H84.1798C84.1059 238.114 84.0008 238.264 83.8644 238.446C83.7281 238.625 83.5335 238.786 83.2806 238.928C83.0278 239.067 82.6911 239.136 82.2707 239.136ZM82.407 238.233C82.8104 238.233 83.1514 238.128 83.4298 237.918C83.7082 237.705 83.9198 237.411 84.0647 237.036C84.2096 236.658 84.282 236.222 84.282 235.727C84.282 235.239 84.211 234.811 84.069 234.445C83.9269 234.075 83.7167 233.788 83.4383 233.584C83.1599 233.376 82.8161 233.273 82.407 233.273C81.9809 233.273 81.6258 233.382 81.3417 233.601C81.0604 233.817 80.8488 234.111 80.7068 234.483C80.5675 234.852 80.4979 235.267 80.4979 235.727C80.4979 236.193 80.569 236.616 80.711 236.997C80.8559 237.375 81.069 237.676 81.3502 237.901C81.6343 238.122 81.9866 238.233 82.407 238.233ZM88.2579 235.062V239H87.2522V232.455H88.2238V233.477H88.309C88.4624 233.145 88.6954 232.878 89.0079 232.676C89.3204 232.472 89.7238 232.369 90.2181 232.369C90.6613 232.369 91.0491 232.46 91.3815 232.642C91.7139 232.821 91.9724 233.094 92.157 233.46C92.3417 233.824 92.434 234.284 92.434 234.841V239H91.4283V234.909C91.4283 234.395 91.2948 233.994 91.0278 233.707C90.7607 233.418 90.3943 233.273 89.9283 233.273C89.6073 233.273 89.3204 233.342 89.0675 233.482C88.8175 233.621 88.6201 233.824 88.4752 234.091C88.3303 234.358 88.2579 234.682 88.2579 235.062Z" fill="#1C1C1C" fill-opacity="0.4"/>
<path d="M155.128 239V230.273H160.361V231.21H156.185V234.159H159.969V235.097H156.185V239H155.128ZM164.299 239.136C163.668 239.136 163.124 238.997 162.667 238.719C162.212 238.438 161.861 238.045 161.614 237.543C161.37 237.037 161.248 236.449 161.248 235.778C161.248 235.108 161.37 234.517 161.614 234.006C161.861 233.491 162.205 233.091 162.645 232.804C163.088 232.514 163.606 232.369 164.196 232.369C164.537 232.369 164.874 232.426 165.206 232.54C165.539 232.653 165.841 232.838 166.114 233.094C166.387 233.347 166.604 233.682 166.766 234.099C166.928 234.517 167.009 235.031 167.009 235.642V236.068H161.963V235.199H165.986C165.986 234.83 165.912 234.5 165.765 234.21C165.62 233.92 165.412 233.692 165.142 233.524C164.875 233.357 164.56 233.273 164.196 233.273C163.796 233.273 163.449 233.372 163.157 233.571C162.867 233.767 162.644 234.023 162.488 234.338C162.331 234.653 162.253 234.991 162.253 235.352V235.932C162.253 236.426 162.338 236.845 162.509 237.189C162.682 237.53 162.922 237.79 163.229 237.969C163.536 238.145 163.892 238.233 164.299 238.233C164.563 238.233 164.802 238.196 165.015 238.122C165.231 238.045 165.417 237.932 165.573 237.781C165.729 237.628 165.85 237.437 165.935 237.21L166.907 237.483C166.804 237.812 166.633 238.102 166.391 238.352C166.15 238.599 165.851 238.793 165.496 238.932C165.141 239.068 164.742 239.136 164.299 239.136ZM168.675 239V230.273H169.681V233.494H169.766C169.84 233.381 169.942 233.236 170.073 233.06C170.206 232.881 170.397 232.722 170.644 232.582C170.894 232.44 171.232 232.369 171.658 232.369C172.209 232.369 172.695 232.507 173.115 232.783C173.536 233.058 173.864 233.449 174.1 233.955C174.336 234.46 174.454 235.057 174.454 235.744C174.454 236.438 174.336 237.038 174.1 237.547C173.864 238.053 173.537 238.445 173.12 238.723C172.702 238.999 172.221 239.136 171.675 239.136C171.255 239.136 170.918 239.067 170.665 238.928C170.412 238.786 170.218 238.625 170.081 238.446C169.945 238.264 169.84 238.114 169.766 237.994H169.647V239H168.675ZM169.664 235.727C169.664 236.222 169.736 236.658 169.881 237.036C170.026 237.411 170.238 237.705 170.516 237.918C170.794 238.128 171.135 238.233 171.539 238.233C171.959 238.233 172.31 238.122 172.591 237.901C172.875 237.676 173.088 237.375 173.231 236.997C173.375 236.616 173.448 236.193 173.448 235.727C173.448 235.267 173.377 234.852 173.235 234.483C173.096 234.111 172.884 233.817 172.6 233.601C172.319 233.382 171.965 233.273 171.539 233.273C171.13 233.273 170.786 233.376 170.508 233.584C170.229 233.788 170.019 234.075 169.877 234.445C169.735 234.811 169.664 235.239 169.664 235.727Z" fill="#1C1C1C" fill-opacity="0.4"/>
<path d="M236.046 230.273H237.307L240.273 237.517H240.375L243.341 230.273H244.602V239H243.614V232.369H243.529L240.801 239H239.847L237.12 232.369H237.034V239H236.046V230.273ZM249.057 239.136C248.511 239.136 248.03 238.999 247.612 238.723C247.194 238.445 246.868 238.053 246.632 237.547C246.396 237.038 246.278 236.438 246.278 235.744C246.278 235.057 246.396 234.46 246.632 233.955C246.868 233.449 247.196 233.058 247.616 232.783C248.037 232.507 248.523 232.369 249.074 232.369C249.5 232.369 249.837 232.44 250.084 232.582C250.334 232.722 250.524 232.881 250.655 233.06C250.788 233.236 250.892 233.381 250.966 233.494H251.051V232.455H252.057V239H251.085V237.994H250.966C250.892 238.114 250.787 238.264 250.65 238.446C250.514 238.625 250.319 238.786 250.067 238.928C249.814 239.067 249.477 239.136 249.057 239.136ZM249.193 238.233C249.596 238.233 249.937 238.128 250.216 237.918C250.494 237.705 250.706 237.411 250.851 237.036C250.996 236.658 251.068 236.222 251.068 235.727C251.068 235.239 250.997 234.811 250.855 234.445C250.713 234.075 250.503 233.788 250.224 233.584C249.946 233.376 249.602 233.273 249.193 233.273C248.767 233.273 248.412 233.382 248.128 233.601C247.846 233.817 247.635 234.111 247.493 234.483C247.354 234.852 247.284 235.267 247.284 235.727C247.284 236.193 247.355 236.616 247.497 236.997C247.642 237.375 247.855 237.676 248.136 237.901C248.42 238.122 248.773 238.233 249.193 238.233ZM254.038 239V232.455H255.01V233.443H255.078C255.197 233.119 255.413 232.857 255.726 232.655C256.038 232.453 256.39 232.352 256.783 232.352C256.856 232.352 256.949 232.354 257.06 232.357C257.17 232.359 257.254 232.364 257.311 232.369V233.392C257.277 233.384 257.199 233.371 257.077 233.354C256.957 233.334 256.831 233.324 256.697 233.324C256.379 233.324 256.095 233.391 255.845 233.524C255.598 233.655 255.402 233.837 255.257 234.07C255.115 234.3 255.044 234.562 255.044 234.858V239H254.038Z" fill="#1C1C1C" fill-opacity="0.4"/>
<path d="M319.471 239H318.363L321.568 230.273H322.659L325.863 239H324.755L322.148 231.653H322.079L319.471 239ZM319.88 235.591H324.346V236.528H319.88V235.591ZM327.086 241.455V232.455H328.058V233.494H328.177C328.251 233.381 328.354 233.236 328.484 233.06C328.618 232.881 328.808 232.722 329.055 232.582C329.305 232.44 329.643 232.369 330.069 232.369C330.621 232.369 331.106 232.507 331.527 232.783C331.947 233.058 332.275 233.449 332.511 233.955C332.747 234.46 332.865 235.057 332.865 235.744C332.865 236.438 332.747 237.038 332.511 237.547C332.275 238.053 331.949 238.445 331.531 238.723C331.113 238.999 330.632 239.136 330.086 239.136C329.666 239.136 329.329 239.067 329.077 238.928C328.824 238.786 328.629 238.625 328.493 238.446C328.356 238.264 328.251 238.114 328.177 237.994H328.092V241.455H327.086ZM328.075 235.727C328.075 236.222 328.148 236.658 328.292 237.036C328.437 237.411 328.649 237.705 328.927 237.918C329.206 238.128 329.547 238.233 329.95 238.233C330.371 238.233 330.721 238.122 331.003 237.901C331.287 237.676 331.5 237.375 331.642 236.997C331.787 236.616 331.859 236.193 331.859 235.727C331.859 235.267 331.788 234.852 331.646 234.483C331.507 234.111 331.295 233.817 331.011 233.601C330.73 233.382 330.376 233.273 329.95 233.273C329.541 233.273 329.197 233.376 328.919 233.584C328.64 233.788 328.43 234.075 328.288 234.445C328.146 234.811 328.075 235.239 328.075 235.727ZM334.399 239V232.455H335.371V233.443H335.439C335.558 233.119 335.774 232.857 336.086 232.655C336.399 232.453 336.751 232.352 337.143 232.352C337.217 232.352 337.309 232.354 337.42 232.357C337.531 232.359 337.615 232.364 337.672 232.369V233.392C337.638 233.384 337.559 233.371 337.437 233.354C337.318 233.334 337.192 233.324 337.058 233.324C336.74 233.324 336.456 233.391 336.206 233.524C335.959 233.655 335.763 233.837 335.618 234.07C335.476 234.3 335.405 234.562 335.405 234.858V239H334.399Z" fill="#1C1C1C" fill-opacity="0.4"/>
<path d="M398.367 230.273H399.628L402.594 237.517H402.696L405.662 230.273H406.924V239H405.935V232.369H405.85L403.122 239H402.168L399.441 232.369H399.355V239H398.367V230.273ZM411.378 239.136C410.832 239.136 410.351 238.999 409.933 238.723C409.516 238.445 409.189 238.053 408.953 237.547C408.717 237.038 408.599 236.438 408.599 235.744C408.599 235.057 408.717 234.46 408.953 233.955C409.189 233.449 409.517 233.058 409.937 232.783C410.358 232.507 410.844 232.369 411.395 232.369C411.821 232.369 412.158 232.44 412.405 232.582C412.655 232.722 412.845 232.881 412.976 233.06C413.109 233.236 413.213 233.381 413.287 233.494H413.372V232.455H414.378V239H413.406V237.994H413.287C413.213 238.114 413.108 238.264 412.972 238.446C412.835 238.625 412.641 238.786 412.388 238.928C412.135 239.067 411.798 239.136 411.378 239.136ZM411.514 238.233C411.918 238.233 412.258 238.128 412.537 237.918C412.815 237.705 413.027 237.411 413.172 237.036C413.317 236.658 413.389 236.222 413.389 235.727C413.389 235.239 413.318 234.811 413.176 234.445C413.034 234.075 412.824 233.788 412.545 233.584C412.267 233.376 411.923 233.273 411.514 233.273C411.088 233.273 410.733 233.382 410.449 233.601C410.168 233.817 409.956 234.111 409.814 234.483C409.675 234.852 409.605 235.267 409.605 235.727C409.605 236.193 409.676 236.616 409.818 236.997C409.963 237.375 410.176 237.676 410.457 237.901C410.741 238.122 411.094 238.233 411.514 238.233ZM417.007 241.455C416.837 241.455 416.685 241.44 416.551 241.412C416.418 241.386 416.325 241.361 416.274 241.335L416.53 240.449C416.774 240.511 416.99 240.534 417.178 240.517C417.365 240.5 417.531 240.416 417.676 240.266C417.824 240.118 417.959 239.878 418.081 239.545L418.268 239.034L415.848 232.455H416.939L418.746 237.67H418.814L420.621 232.455H421.712L418.933 239.955C418.808 240.293 418.653 240.572 418.469 240.794C418.284 241.018 418.07 241.185 417.825 241.293C417.584 241.401 417.311 241.455 417.007 241.455Z" fill="#1C1C1C" fill-opacity="0.4"/>
<path d="M485.572 230.273H486.629V236.511C486.629 237.068 486.527 237.541 486.322 237.93C486.118 238.32 485.829 238.615 485.457 238.817C485.085 239.018 484.646 239.119 484.141 239.119C483.663 239.119 483.239 239.033 482.866 238.859C482.494 238.683 482.202 238.433 481.989 238.109C481.775 237.786 481.669 237.401 481.669 236.955H482.709C482.709 237.202 482.77 237.418 482.892 237.602C483.017 237.784 483.187 237.926 483.403 238.028C483.619 238.131 483.865 238.182 484.141 238.182C484.445 238.182 484.703 238.118 484.916 237.99C485.129 237.862 485.291 237.675 485.402 237.428C485.516 237.178 485.572 236.872 485.572 236.511V230.273ZM492.736 236.324V232.455H493.741V239H492.736V237.892H492.668C492.514 238.224 492.275 238.507 491.952 238.74C491.628 238.97 491.219 239.085 490.724 239.085C490.315 239.085 489.952 238.996 489.633 238.817C489.315 238.635 489.065 238.362 488.883 237.999C488.702 237.632 488.611 237.17 488.611 236.614V232.455H489.616V236.545C489.616 237.023 489.75 237.403 490.017 237.688C490.287 237.972 490.631 238.114 491.048 238.114C491.298 238.114 491.552 238.05 491.811 237.922C492.072 237.794 492.291 237.598 492.467 237.334C492.646 237.07 492.736 236.733 492.736 236.324ZM496.589 235.062V239H495.583V232.455H496.555V233.477H496.64C496.794 233.145 497.027 232.878 497.339 232.676C497.652 232.472 498.055 232.369 498.549 232.369C498.992 232.369 499.38 232.46 499.713 232.642C500.045 232.821 500.304 233.094 500.488 233.46C500.673 233.824 500.765 234.284 500.765 234.841V239H499.76V234.909C499.76 234.395 499.626 233.994 499.359 233.707C499.092 233.418 498.725 233.273 498.26 233.273C497.938 233.273 497.652 233.342 497.399 233.482C497.149 233.621 496.951 233.824 496.806 234.091C496.662 234.358 496.589 234.682 496.589 235.062Z" fill="#1C1C1C" fill-opacity="0.4"/>
<path d="M569.373 230.273H570.429V236.511C570.429 237.068 570.327 237.541 570.123 237.93C569.918 238.32 569.63 238.615 569.258 238.817C568.885 239.018 568.446 239.119 567.941 239.119C567.464 239.119 567.039 239.033 566.667 238.859C566.294 238.683 566.002 238.433 565.789 238.109C565.576 237.786 565.469 237.401 565.469 236.955H566.509C566.509 237.202 566.57 237.418 566.692 237.602C566.817 237.784 566.988 237.926 567.204 238.028C567.419 238.131 567.665 238.182 567.941 238.182C568.245 238.182 568.503 238.118 568.716 237.99C568.929 237.862 569.091 237.675 569.202 237.428C569.316 237.178 569.373 236.872 569.373 236.511V230.273ZM576.536 236.324V232.455H577.542V239H576.536V237.892H576.468C576.314 238.224 576.076 238.507 575.752 238.74C575.428 238.97 575.019 239.085 574.525 239.085C574.116 239.085 573.752 238.996 573.434 238.817C573.116 238.635 572.866 238.362 572.684 237.999C572.502 237.632 572.411 237.17 572.411 236.614V232.455H573.417V236.545C573.417 237.023 573.55 237.403 573.817 237.688C574.087 237.972 574.431 238.114 574.848 238.114C575.098 238.114 575.353 238.05 575.611 237.922C575.873 237.794 576.091 237.598 576.267 237.334C576.446 237.07 576.536 236.733 576.536 236.324ZM580.389 230.273V239H579.384V230.273H580.389Z" fill="#1C1C1C" fill-opacity="0.4"/>
<mask id="mask0_1934_3164" style="mask-type:alpha" maskUnits="userSpaceOnUse" x="62" y="50" width="538" height="115">
<rect x="62.0852" y="50.9763" width="537.851" height="113.169" fill="url(#paint0_radial_1934_3164)"/>
</mask>
<g mask="url(#mask0_1934_3164)">
<path opacity="0.2" d="M249.277 144.551C156.542 153.68 104.672 136.34 62.2341 114.273V261.536H599.787V72.192C418.507 57.8229 357.207 133.926 249.277 144.551Z" fill="#1C1C1C"/>
<path opacity="0.4" d="M275.556 103.124C165.781 62.743 84.9032 126.273 62.2341 148.06V261.536H599.787V50.9763C484.293 98.2338 473.116 175.798 275.556 103.124Z" fill="#A8C5DA"/>
</g>
<path d="M62.2341 114.273C104.672 136.34 156.542 153.68 249.277 144.551C303.142 139.248 345.393 117.637 396.74 99.1017" stroke="#1C1C1C" stroke-width="3" stroke-linecap="round" stroke-linejoin="round"/>
<path d="M599.787 72.192C509.568 65.0408 449.066 80.298 397.744 98.7402" stroke="#1C1C1C" stroke-width="3" stroke-linecap="round" stroke-linejoin="round" stroke-dasharray="3 10"/>
<path d="M62.2341 148.06C84.9033 126.273 165.782 62.743 275.556 103.124C473.116 175.798 484.293 98.2338 599.787 50.9763" stroke="#A8C5DA" stroke-width="3" stroke-linecap="round" stroke-linejoin="round"/>
<path d="M249.277 144.4C302.228 139.187 343.955 118.215 394.132 99.8972" stroke="#1C1C1C" stroke-width="3" stroke-linecap="round" stroke-linejoin="round"/>
<path d="M208 70.8C208 66.3196 208 64.0794 208.872 62.3681C209.639 60.8628 210.863 59.6389 212.368 58.8719C214.079 58 216.32 58 220.8 58H274.2C278.68 58 280.921 58 282.632 58.8719C284.137 59.6389 285.361 60.8628 286.128 62.3681C287 64.0794 287 66.3196 287 70.8V71.2C287 75.6804 287 77.9206 286.128 79.6319C285.361 81.1372 284.137 82.3611 282.632 83.1281C280.921 84 278.68 84 274.2 84H220.8C216.32 84 214.079 84 212.368 83.1281C210.863 82.3611 209.639 81.1372 208.872 79.6319C208 77.9206 208 75.6804 208 71.2V70.8Z" fill="#1C1C1C" fill-opacity="0.8"/>
<path d="M219.699 66.2727V75H218.642V67.8068H218.574C218.534 67.8864 218.432 67.9773 218.267 68.0795C218.102 68.179 217.889 68.267 217.628 68.3438C217.366 68.4176 217.068 68.4545 216.733 68.4545V67.5682C217.071 67.5682 217.364 67.5071 217.611 67.3849C217.858 67.2628 218.064 67.1193 218.229 66.9545C218.396 66.7898 218.523 66.6406 218.608 66.5071C218.696 66.3736 218.747 66.2955 218.761 66.2727H219.699ZM224.996 75.1193C224.411 75.1193 223.893 75.0156 223.445 74.8082C222.999 74.598 222.651 74.3097 222.401 73.9432C222.151 73.5739 222.027 73.1534 222.03 72.6818C222.027 72.3125 222.099 71.9716 222.247 71.6591C222.395 71.3437 222.597 71.081 222.852 70.8707C223.111 70.6577 223.399 70.5227 223.717 70.4659V70.4148C223.3 70.3068 222.967 70.0724 222.72 69.7116C222.473 69.348 222.351 68.9347 222.354 68.4716C222.351 68.0284 222.463 67.6321 222.69 67.2827C222.918 66.9332 223.23 66.6577 223.628 66.456C224.028 66.2543 224.484 66.1534 224.996 66.1534C225.501 66.1534 225.953 66.2543 226.351 66.456C226.749 66.6577 227.061 66.9332 227.288 67.2827C227.518 67.6321 227.635 68.0284 227.638 68.4716C227.635 68.9347 227.509 69.348 227.259 69.7116C227.011 70.0724 226.683 70.3068 226.274 70.4148V70.4659C226.589 70.5227 226.874 70.6577 227.126 70.8707C227.379 71.081 227.581 71.3437 227.732 71.6591C227.882 71.9716 227.959 72.3125 227.962 72.6818C227.959 73.1534 227.831 73.5739 227.578 73.9432C227.328 74.3097 226.98 74.598 226.534 74.8082C226.091 75.0156 225.578 75.1193 224.996 75.1193ZM224.996 74.1818C225.391 74.1818 225.732 74.1179 226.018 73.9901C226.305 73.8622 226.527 73.6818 226.683 73.4489C226.839 73.2159 226.919 72.9432 226.922 72.6307C226.919 72.3011 226.834 72.0099 226.666 71.7571C226.499 71.5043 226.27 71.3054 225.98 71.1605C225.693 71.0156 225.365 70.9432 224.996 70.9432C224.624 70.9432 224.291 71.0156 223.999 71.1605C223.709 71.3054 223.48 71.5043 223.312 71.7571C223.148 72.0099 223.067 72.3011 223.07 72.6307C223.067 72.9432 223.142 73.2159 223.295 73.4489C223.452 73.6818 223.675 73.8622 223.964 73.9901C224.254 74.1179 224.598 74.1818 224.996 74.1818ZM224.996 70.0398C225.308 70.0398 225.585 69.9773 225.827 69.8523C226.071 69.7273 226.263 69.5526 226.402 69.3281C226.541 69.1037 226.612 68.8409 226.615 68.5398C226.612 68.2443 226.543 67.9872 226.406 67.7685C226.27 67.5469 226.081 67.3764 225.839 67.2571C225.598 67.1349 225.317 67.0739 224.996 67.0739C224.669 67.0739 224.384 67.1349 224.139 67.2571C223.895 67.3764 223.706 67.5469 223.572 67.7685C223.439 67.9872 223.374 68.2443 223.376 68.5398C223.374 68.8409 223.44 69.1037 223.577 69.3281C223.716 69.5526 223.908 69.7273 224.152 69.8523C224.396 69.9773 224.678 70.0398 224.996 70.0398ZM230.842 73.8068L230.774 74.267C230.726 74.5909 230.652 74.9375 230.553 75.3068C230.456 75.6761 230.355 76.0241 230.25 76.3509C230.145 76.6776 230.058 76.9375 229.99 77.1307H229.223C229.26 76.9489 229.308 76.7088 229.368 76.4105C229.428 76.1122 229.487 75.7784 229.547 75.4091C229.609 75.0426 229.661 74.6676 229.7 74.2841L229.751 73.8068H230.842ZM232.689 75V74.233L235.569 71.0795C235.907 70.7102 236.186 70.3892 236.404 70.1165C236.623 69.8409 236.785 69.5824 236.89 69.3409C236.998 69.0966 237.052 68.8409 237.052 68.5739C237.052 68.267 236.978 68.0014 236.831 67.777C236.686 67.5526 236.487 67.3793 236.234 67.2571C235.981 67.1349 235.697 67.0739 235.382 67.0739C235.047 67.0739 234.754 67.1435 234.504 67.2827C234.257 67.419 234.065 67.6108 233.929 67.858C233.795 68.1051 233.728 68.3949 233.728 68.7273H232.723C232.723 68.2159 232.841 67.767 233.076 67.3807C233.312 66.9943 233.633 66.6932 234.039 66.4773C234.449 66.2614 234.907 66.1534 235.416 66.1534C235.927 66.1534 236.38 66.2614 236.775 66.4773C237.17 66.6932 237.48 66.9844 237.704 67.3509C237.929 67.7173 238.041 68.125 238.041 68.5739C238.041 68.8949 237.983 69.2088 237.866 69.5156C237.752 69.8196 237.554 70.1591 237.27 70.5341C236.988 70.9062 236.598 71.3608 236.098 71.8977L234.137 73.9943V74.0625H238.194V75H232.689ZM242.681 75.1193C242.181 75.1193 241.731 75.0199 241.331 74.821C240.93 74.6222 240.609 74.3494 240.368 74.0028C240.126 73.6562 239.994 73.2614 239.971 72.8182H240.994C241.034 73.2131 241.213 73.5398 241.531 73.7983C241.852 74.054 242.235 74.1818 242.681 74.1818C243.039 74.1818 243.358 74.098 243.636 73.9304C243.917 73.7628 244.137 73.5327 244.297 73.2401C244.458 72.9446 244.539 72.6108 244.539 72.2386C244.539 71.858 244.456 71.5185 244.288 71.2202C244.123 70.919 243.896 70.6818 243.606 70.5085C243.316 70.3352 242.985 70.2472 242.613 70.2443C242.346 70.2415 242.072 70.2827 241.791 70.3679C241.51 70.4503 241.278 70.5568 241.096 70.6875L240.108 70.5682L240.636 66.2727H245.17V67.2102H241.522L241.216 69.7841H241.267C241.446 69.642 241.67 69.5241 241.94 69.4304C242.21 69.3366 242.491 69.2898 242.784 69.2898C243.318 69.2898 243.794 69.4176 244.211 69.6733C244.632 69.9261 244.961 70.2727 245.2 70.7131C245.441 71.1534 245.562 71.6562 245.562 72.2216C245.562 72.7784 245.437 73.2756 245.187 73.7131C244.94 74.1477 244.599 74.4915 244.164 74.7443C243.73 74.9943 243.235 75.1193 242.681 75.1193ZM247.05 72.2386C247.056 71.9659 247.097 71.6832 247.174 71.3906C247.251 71.098 247.38 70.7727 247.562 70.4148C247.744 70.0568 247.994 69.642 248.312 69.1705L250.272 66.2727H251.431L249.13 69.6307C249.232 69.5966 249.337 69.5682 249.445 69.5455C249.556 69.5227 249.667 69.5114 249.778 69.5114C250.306 69.5114 250.778 69.6335 251.192 69.8778C251.61 70.1222 251.938 70.456 252.177 70.8793C252.418 71.3026 252.539 71.7841 252.539 72.3239C252.539 72.8636 252.42 73.3437 252.181 73.7642C251.945 74.1847 251.62 74.5156 251.205 74.7571C250.793 74.9986 250.323 75.1193 249.795 75.1193C249.261 75.1193 248.786 74.9957 248.371 74.7486C247.957 74.4986 247.631 74.1577 247.396 73.7259C247.16 73.2912 247.045 72.7955 247.05 72.2386ZM248.056 72.3068C248.056 72.6761 248.13 73.0028 248.278 73.2869C248.425 73.571 248.63 73.794 248.891 73.956C249.153 74.1179 249.454 74.1989 249.795 74.1989C250.136 74.1989 250.437 74.1193 250.698 73.9602C250.96 73.7983 251.164 73.5767 251.312 73.2955C251.46 73.0114 251.533 72.6875 251.533 72.3239C251.533 71.9545 251.46 71.6293 251.312 71.348C251.164 71.0668 250.96 70.8466 250.698 70.6875C250.437 70.5284 250.136 70.4489 249.795 70.4489C249.454 70.4489 249.153 70.5284 248.891 70.6875C248.63 70.8438 248.425 71.0625 248.278 71.3438C248.13 71.6222 248.056 71.9432 248.056 72.3068ZM255.663 73.8068L255.594 74.267C255.546 74.5909 255.472 74.9375 255.373 75.3068C255.276 75.6761 255.175 76.0241 255.07 76.3509C254.965 76.6776 254.879 76.9375 254.81 77.1307H254.043C254.08 76.9489 254.129 76.7088 254.188 76.4105C254.248 76.1122 254.308 75.7784 254.367 75.4091C254.43 75.0426 254.481 74.6676 254.521 74.2841L254.572 73.8068H255.663ZM260.06 75.1193C259.56 75.1193 259.11 75.0199 258.71 74.821C258.309 74.6222 257.988 74.3494 257.746 74.0028C257.505 73.6562 257.373 73.2614 257.35 72.8182H258.373C258.413 73.2131 258.592 73.5398 258.91 73.7983C259.231 74.054 259.614 74.1818 260.06 74.1818C260.418 74.1818 260.737 74.098 261.015 73.9304C261.296 73.7628 261.516 73.5327 261.675 73.2401C261.837 72.9446 261.918 72.6108 261.918 72.2386C261.918 71.858 261.835 71.5185 261.667 71.2202C261.502 70.919 261.275 70.6818 260.985 70.5085C260.695 70.3352 260.364 70.2472 259.992 70.2443C259.725 70.2415 259.451 70.2827 259.17 70.3679C258.888 70.4503 258.657 70.5568 258.475 70.6875L257.487 70.5682L258.015 66.2727H262.549V67.2102H258.901L258.594 69.7841H258.646C258.825 69.642 259.049 69.5241 259.319 69.4304C259.589 69.3366 259.87 69.2898 260.163 69.2898C260.697 69.2898 261.173 69.4176 261.59 69.6733C262.011 69.9261 262.34 70.2727 262.579 70.7131C262.82 71.1534 262.941 71.6562 262.941 72.2216C262.941 72.7784 262.816 73.2756 262.566 73.7131C262.319 74.1477 261.978 74.4915 261.543 74.7443C261.109 74.9943 260.614 75.1193 260.06 75.1193ZM264.429 68.9489C264.429 68.4091 264.547 67.929 264.783 67.5085C265.022 67.0881 265.347 66.7571 265.759 66.5156C266.174 66.2741 266.645 66.1534 267.174 66.1534C267.708 66.1534 268.182 66.2784 268.597 66.5284C269.012 66.7756 269.337 67.1165 269.573 67.5511C269.809 67.983 269.924 68.4773 269.918 69.0341C269.912 69.3068 269.871 69.5895 269.794 69.8821C269.718 70.1747 269.588 70.5 269.407 70.858C269.225 71.2159 268.975 71.6307 268.657 72.1023L266.696 75H265.537L267.838 71.642C267.736 71.6761 267.63 71.7045 267.519 71.7273C267.411 71.75 267.301 71.7614 267.191 71.7614C266.662 71.7614 266.189 71.6392 265.772 71.3949C265.357 71.1506 265.029 70.8168 264.787 70.3935C264.549 69.9702 264.429 69.4886 264.429 68.9489ZM265.435 68.9489C265.435 69.3182 265.509 69.6435 265.657 69.9247C265.804 70.206 266.009 70.4261 266.27 70.5852C266.532 70.7443 266.833 70.8239 267.174 70.8239C267.515 70.8239 267.816 70.7457 268.077 70.5895C268.338 70.4304 268.543 70.2116 268.691 69.9332C268.838 69.652 268.912 69.3295 268.912 68.9659C268.912 68.5966 268.838 68.2699 268.691 67.9858C268.543 67.7017 268.338 67.4787 268.077 67.3168C267.816 67.1548 267.515 67.0739 267.174 67.0739C266.833 67.0739 266.532 67.1548 266.27 67.3168C266.009 67.4759 265.804 67.6974 265.657 67.9815C265.509 68.2628 265.435 68.5852 265.435 68.9489ZM274.32 75.1193C273.735 75.1193 273.218 75.0156 272.769 74.8082C272.323 74.598 271.975 74.3097 271.725 73.9432C271.475 73.5739 271.351 73.1534 271.354 72.6818C271.351 72.3125 271.424 71.9716 271.571 71.6591C271.719 71.3437 271.921 71.081 272.176 70.8707C272.435 70.6577 272.723 70.5227 273.042 70.4659V70.4148C272.624 70.3068 272.292 70.0724 272.044 69.7116C271.797 69.348 271.675 68.9347 271.678 68.4716C271.675 68.0284 271.787 67.6321 272.015 67.2827C272.242 66.9332 272.554 66.6577 272.952 66.456C273.353 66.2543 273.809 66.1534 274.32 66.1534C274.826 66.1534 275.277 66.2543 275.675 66.456C276.073 66.6577 276.385 66.9332 276.613 67.2827C276.843 67.6321 276.959 68.0284 276.962 68.4716C276.959 68.9347 276.833 69.348 276.583 69.7116C276.336 70.0724 276.007 70.3068 275.598 70.4148V70.4659C275.914 70.5227 276.198 70.6577 276.451 70.8707C276.703 71.081 276.905 71.3437 277.056 71.6591C277.206 71.9716 277.283 72.3125 277.286 72.6818C277.283 73.1534 277.155 73.5739 276.902 73.9432C276.652 74.3097 276.304 74.598 275.858 74.8082C275.415 75.0156 274.902 75.1193 274.32 75.1193ZM274.32 74.1818C274.715 74.1818 275.056 74.1179 275.343 73.9901C275.63 73.8622 275.851 73.6818 276.007 73.4489C276.164 73.2159 276.243 72.9432 276.246 72.6307C276.243 72.3011 276.158 72.0099 275.99 71.7571C275.823 71.5043 275.594 71.3054 275.304 71.1605C275.017 71.0156 274.689 70.9432 274.32 70.9432C273.948 70.9432 273.615 71.0156 273.323 71.1605C273.033 71.3054 272.804 71.5043 272.637 71.7571C272.472 72.0099 272.391 72.3011 272.394 72.6307C272.391 72.9432 272.466 73.2159 272.62 73.4489C272.776 73.6818 272.999 73.8622 273.289 73.9901C273.578 74.1179 273.922 74.1818 274.32 74.1818ZM274.32 70.0398C274.632 70.0398 274.909 69.9773 275.151 69.8523C275.395 69.7273 275.587 69.5526 275.726 69.3281C275.865 69.1037 275.936 68.8409 275.939 68.5398C275.936 68.2443 275.867 67.9872 275.73 67.7685C275.594 67.5469 275.405 67.3764 275.164 67.2571C274.922 67.1349 274.641 67.0739 274.32 67.0739C273.993 67.0739 273.708 67.1349 273.463 67.2571C273.219 67.3764 273.03 67.5469 272.897 67.7685C272.763 67.9872 272.698 68.2443 272.701 68.5398C272.698 68.8409 272.765 69.1037 272.901 69.3281C273.04 69.5526 273.232 69.7273 273.476 69.8523C273.721 69.9773 274.002 70.0398 274.32 70.0398Z" fill="white"/>
<g filter="url(#filter1_d_1934_3164)">
<circle cx="3" cy="3" r="4.5" transform="matrix(-1 0 0 1 250.5 91)" fill="#A8C5DA" stroke="white" stroke-width="3"/>
</g>
<defs>
<filter id="filter1_d_1934_3164" x="239.5" y="88" width="16" height="16" filterUnits="userSpaceOnUse" color-interpolation-filters="sRGB">
<feFlood flood-opacity="0" result="BackgroundImageFix"/>
<feColorMatrix in="SourceAlpha" type="matrix" values="0 0 0 0 0 0 0 0 0 0 0 0 0 0 0 0 0 0 127 0" result="hardAlpha"/>
<feOffset dy="2"/>
<feGaussianBlur stdDeviation="1"/>
<feComposite in2="hardAlpha" operator="out"/>
<feColorMatrix type="matrix" values="0 0 0 0 0 0 0 0 0 0 0 0 0 0 0 0 0 0 0.1 0"/>
<feBlend mode="normal" in2="BackgroundImageFix" result="effect1_dropShadow_1934_3164"/>
<feBlend mode="normal" in="SourceGraphic" in2="effect1_dropShadow_1934_3164" result="shape"/>
</filter>
<radialGradient id="paint0_radial_1934_3164" cx="0" cy="0" r="1" gradientUnits="userSpaceOnUse" gradientTransform="translate(306.747 64.5784) rotate(87.1473) scale(60.9423 239.38)">
<stop/>
<stop offset="1" stop-color="#D9D9D9" stop-opacity="0"/>
</radialGradient>
</defs>
</svg>
