<svg width="116" height="20" viewBox="0 0 116 20" fill="none" xmlns="http://www.w3.org/2000/svg">
<path d="M14.35 16.3562C14.2566 16.4481 14.131 16.4998 14 16.5C13.8672 16.4994 13.7397 16.448 13.6437 16.3562L10.9437 13.65C9.80659 14.6051 8.34462 15.0844 6.86273 14.9878C5.38083 14.8912 3.99343 14.2263 2.98988 13.1316C1.98633 12.037 1.44412 10.5972 1.47633 9.11248C1.50855 7.62779 2.11269 6.21286 3.16277 5.16277C4.21286 4.11269 5.62779 3.50855 7.11248 3.47633C8.59717 3.44412 10.037 3.98633 11.1316 4.98988C12.2263 5.99343 12.8912 7.38083 12.9878 8.86273C13.0844 10.3446 12.6051 11.8066 11.65 12.9437L14.35 15.6437C14.3972 15.6903 14.4347 15.7457 14.4603 15.8069C14.486 15.868 14.4991 15.9337 14.4991 16C14.4991 16.0663 14.486 16.1319 14.4603 16.1931C14.4347 16.2542 14.3972 16.3097 14.35 16.3562ZM7.24997 14C8.18944 14 9.1078 13.7214 9.88893 13.1995C10.6701 12.6775 11.2789 11.9357 11.6384 11.0677C11.9979 10.1998 12.092 9.24471 11.9087 8.3233C11.7254 7.40189 11.273 6.55552 10.6087 5.89122C9.94443 5.22692 9.09806 4.77452 8.17665 4.59124C7.25524 4.40797 6.30018 4.50203 5.43223 4.86155C4.56428 5.22106 3.82243 5.82988 3.30049 6.61102C2.77856 7.39215 2.49997 8.31051 2.49997 9.24998C2.50163 10.5092 3.0026 11.7165 3.89304 12.6069C4.78348 13.4973 5.9907 13.9983 7.24997 14Z" fill="#1C1C1C" fill-opacity="0.2"/>
<path d="M26.8011 7.36364C26.7415 6.85985 26.4995 6.46875 26.0753 6.19034C25.651 5.91193 25.1307 5.77273 24.5142 5.77273C24.0634 5.77273 23.669 5.84564 23.331 5.99148C22.9962 6.13731 22.7344 6.33783 22.5455 6.59304C22.3598 6.84825 22.267 7.13826 22.267 7.46307C22.267 7.73485 22.3317 7.96851 22.4609 8.16406C22.5935 8.3563 22.7625 8.51705 22.968 8.64631C23.1735 8.77225 23.389 8.87666 23.6143 8.95952C23.8397 9.03906 24.0469 9.10369 24.2358 9.15341L25.2699 9.43182C25.535 9.50142 25.83 9.59754 26.1548 9.72017C26.483 9.8428 26.7962 10.0102 27.0945 10.2223C27.3961 10.4311 27.6446 10.6996 27.8402 11.0277C28.0357 11.3558 28.1335 11.7585 28.1335 12.2358C28.1335 12.786 27.9893 13.2831 27.701 13.7273C27.416 14.1714 26.9983 14.5244 26.4482 14.7862C25.9013 15.0481 25.2367 15.179 24.4545 15.179C23.7254 15.179 23.094 15.0613 22.5604 14.826C22.0301 14.5907 21.6125 14.2625 21.3075 13.8416C21.0059 13.4207 20.8352 12.9318 20.7955 12.375H22.0682C22.1013 12.7595 22.2306 13.0777 22.456 13.3295C22.6847 13.5781 22.973 13.7637 23.321 13.8864C23.6723 14.0057 24.0502 14.0653 24.4545 14.0653C24.9252 14.0653 25.3478 13.9891 25.7223 13.8366C26.0968 13.6809 26.3935 13.4654 26.6122 13.1903C26.831 12.9119 26.9403 12.5871 26.9403 12.2159C26.9403 11.8778 26.8459 11.6027 26.657 11.3906C26.468 11.1785 26.2195 11.0062 25.9112 10.8736C25.603 10.741 25.2699 10.625 24.9119 10.5256L23.6591 10.1676C22.8636 9.93892 22.2339 9.61245 21.7699 9.18821C21.3059 8.76397 21.0739 8.20881 21.0739 7.52273C21.0739 6.95265 21.228 6.45549 21.5362 6.03125C21.8478 5.60369 22.2654 5.27225 22.7891 5.03693C23.3161 4.7983 23.9044 4.67898 24.554 4.67898C25.2102 4.67898 25.7936 4.79664 26.304 5.03196C26.8144 5.26397 27.2188 5.58215 27.517 5.98651C27.8187 6.39086 27.9777 6.8499 27.9943 7.36364H26.8011ZM33.2033 15.1591C32.4675 15.1591 31.8328 14.9967 31.2992 14.6719C30.7689 14.3438 30.3596 13.8864 30.0712 13.2997C29.7862 12.7098 29.6436 12.0237 29.6436 11.2415C29.6436 10.4593 29.7862 9.76989 30.0712 9.1733C30.3596 8.57339 30.7606 8.10606 31.2743 7.77131C31.7914 7.43324 32.3946 7.2642 33.084 7.2642C33.4817 7.2642 33.8745 7.33049 34.2623 7.46307C34.65 7.59564 35.003 7.81108 35.3212 8.10938C35.6394 8.40436 35.8929 8.79545 36.0819 9.28267C36.2708 9.76989 36.3652 10.3698 36.3652 11.0824V11.5795H30.4789V10.5653H35.1721C35.1721 10.1345 35.0859 9.75 34.9135 9.41193C34.7445 9.07386 34.5025 8.80705 34.1877 8.61151C33.8761 8.41596 33.5082 8.31818 33.084 8.31818C32.6167 8.31818 32.2123 8.43419 31.8709 8.66619C31.5328 8.89489 31.2727 9.19318 31.0904 9.56108C30.9081 9.92898 30.8169 10.3234 30.8169 10.7443V11.4205C30.8169 11.9972 30.9164 12.486 31.1152 12.8871C31.3174 13.2848 31.5975 13.5881 31.9554 13.7969C32.3134 14.0024 32.7293 14.1051 33.2033 14.1051C33.5115 14.1051 33.79 14.062 34.0385 13.9759C34.2904 13.8864 34.5075 13.7538 34.6898 13.5781C34.8721 13.3991 35.013 13.1771 35.1124 12.9119L36.2459 13.2301C36.1266 13.6146 35.9261 13.9527 35.6444 14.2443C35.3626 14.5327 35.0146 14.758 34.6003 14.9205C34.186 15.0795 33.7203 15.1591 33.2033 15.1591ZM41.0336 15.1591C40.3972 15.1591 39.8354 14.9983 39.3482 14.6768C38.861 14.352 38.4798 13.8946 38.2047 13.3047C37.9296 12.7114 37.7921 12.0104 37.7921 11.2017C37.7921 10.3996 37.9296 9.7036 38.2047 9.11364C38.4798 8.52367 38.8626 8.06794 39.3532 7.74645C39.8437 7.42495 40.4105 7.2642 41.0534 7.2642C41.5506 7.2642 41.9434 7.34706 42.2317 7.51278C42.5234 7.67519 42.7454 7.8608 42.8979 8.0696C43.0537 8.27509 43.1747 8.44413 43.2608 8.5767H43.3603V7.36364H44.5336V15H43.4V13.8267H43.2608C43.1747 13.9659 43.052 14.1416 42.8929 14.3537C42.7338 14.5625 42.5068 14.7498 42.2118 14.9155C41.9168 15.0779 41.5241 15.1591 41.0336 15.1591ZM41.1926 14.1051C41.6633 14.1051 42.061 13.9825 42.3858 13.7372C42.7106 13.4886 42.9576 13.1456 43.1266 12.7081C43.2956 12.2673 43.3801 11.7585 43.3801 11.1818C43.3801 10.6117 43.2973 10.1129 43.1316 9.68537C42.9659 9.2545 42.7206 8.91974 42.3958 8.68111C42.071 8.43916 41.6699 8.31818 41.1926 8.31818C40.6955 8.31818 40.2812 8.44579 39.9498 8.70099C39.6216 8.95289 39.3747 9.29593 39.209 9.73011C39.0466 10.161 38.9654 10.6449 38.9654 11.1818C38.9654 11.7254 39.0482 12.2192 39.214 12.6634C39.383 13.1042 39.6316 13.4555 39.9597 13.7173C40.2911 13.9759 40.7021 14.1051 41.1926 14.1051ZM46.8453 15V7.36364H47.9789V8.51705H48.0584C48.1976 8.1392 48.4495 7.83262 48.8141 7.5973C49.1787 7.36198 49.5897 7.24432 50.0471 7.24432C50.1332 7.24432 50.2409 7.24597 50.3702 7.24929C50.4995 7.2526 50.5972 7.25758 50.6635 7.2642V8.45739C50.6238 8.44744 50.5326 8.43253 50.3901 8.41264C50.2509 8.38944 50.1034 8.37784 49.9476 8.37784C49.5764 8.37784 49.245 8.45573 48.9533 8.61151C48.665 8.76397 48.4363 8.97609 48.2672 9.24787C48.1015 9.51634 48.0186 9.82292 48.0186 10.1676V15H46.8453ZM54.9242 15.1591C54.2083 15.1591 53.5918 14.9901 53.0748 14.652C52.5577 14.3139 52.16 13.8482 51.8816 13.255C51.6032 12.6617 51.464 11.9839 51.464 11.2216C51.464 10.446 51.6065 9.7616 51.8915 9.16832C52.1799 8.57173 52.5809 8.10606 53.0946 7.77131C53.6117 7.43324 54.2149 7.2642 54.9043 7.2642C55.4412 7.2642 55.9251 7.36364 56.356 7.5625C56.7869 7.76136 57.1399 8.03977 57.415 8.39773C57.69 8.75568 57.8607 9.1733 57.927 9.65057H56.7537C56.6642 9.30256 56.4654 8.99432 56.1571 8.72585C55.8522 8.45407 55.4412 8.31818 54.9242 8.31818C54.4668 8.31818 54.0658 8.4375 53.7211 8.67614C53.3797 8.91146 53.1129 9.24455 52.9206 9.67543C52.7317 10.103 52.6373 10.6051 52.6373 11.1818C52.6373 11.7718 52.7301 12.2855 52.9157 12.723C53.1046 13.1605 53.3697 13.5002 53.7111 13.7422C54.0558 13.9841 54.4602 14.1051 54.9242 14.1051C55.2291 14.1051 55.5059 14.0521 55.7544 13.946C56.003 13.84 56.2135 13.6875 56.3858 13.4886C56.5582 13.2898 56.6808 13.0511 56.7537 12.7727H57.927C57.8607 13.2235 57.6967 13.6295 57.4348 13.9908C57.1763 14.3487 56.8333 14.6338 56.4057 14.8459C55.9815 15.0547 55.4876 15.1591 54.9242 15.1591ZM60.8155 10.4062V15H59.6422V4.81818H60.8155V8.55682H60.915C61.0939 8.16241 61.3624 7.84919 61.7203 7.61719C62.0816 7.38187 62.5622 7.2642 63.1621 7.2642C63.6825 7.2642 64.1382 7.36861 64.5293 7.57741C64.9204 7.78291 65.2237 8.09943 65.4391 8.52699C65.6578 8.95123 65.7672 9.49148 65.7672 10.1477V15H64.5939V10.2273C64.5939 9.62074 64.4365 9.15175 64.1216 8.82031C63.8101 8.48556 63.3775 8.31818 62.824 8.31818C62.4396 8.31818 62.0949 8.39938 61.79 8.56179C61.4883 8.72419 61.2497 8.96117 61.074 9.27273C60.9017 9.58428 60.8155 9.96212 60.8155 10.4062Z" fill="#1C1C1C" fill-opacity="0.2"/>
</svg>
