<svg width="28" height="28" viewBox="0 0 28 28" fill="none" xmlns="http://www.w3.org/2000/svg">
<path d="M18.3852 15.539C18.2995 15.6143 18.2358 15.7113 18.2009 15.8198C18.1659 15.9284 18.161 16.0443 18.1867 16.1554L19.243 20.7289C19.2709 20.8483 19.263 20.9733 19.2204 21.0883C19.1777 21.2034 19.1022 21.3033 19.0032 21.3757C18.9041 21.4481 18.786 21.4897 18.6634 21.4954C18.5409 21.5011 18.4194 21.4706 18.3141 21.4078L14.3219 18.9859C14.2249 18.9269 14.1135 18.8957 14 18.8957C13.8865 18.8957 13.7751 18.9269 13.6781 18.9859L9.68594 21.4078C9.58061 21.4706 9.4591 21.5011 9.33657 21.4954C9.21403 21.4897 9.09588 21.4481 8.99685 21.3757C8.89781 21.3033 8.82226 21.2034 8.77962 21.0883C8.73698 20.9733 8.72912 20.8483 8.75704 20.7289L9.81329 16.1554C9.83896 16.0443 9.83407 15.9284 9.79913 15.8198C9.76419 15.7113 9.70051 15.6143 9.61485 15.539L6.09063 12.4648C5.99641 12.3847 5.92806 12.2785 5.89424 12.1596C5.86041 12.0406 5.86262 11.9143 5.90059 11.7966C5.93856 11.679 6.01059 11.5752 6.10755 11.4985C6.20452 11.4217 6.32206 11.3755 6.44532 11.3656L11.0906 10.964C11.204 10.9539 11.3124 10.9131 11.4042 10.8459C11.4961 10.7787 11.5678 10.6877 11.6117 10.5828L13.4266 6.25776C13.475 6.14594 13.5552 6.05074 13.657 5.98386C13.7589 5.91698 13.8781 5.88135 14 5.88135C14.1219 5.88135 14.2411 5.91698 14.343 5.98386C14.4449 6.05074 14.525 6.14594 14.5734 6.25776L16.3883 10.5828C16.4322 10.6877 16.504 10.7787 16.5958 10.8459C16.6876 10.9131 16.796 10.9539 16.9094 10.964L21.5547 11.3656C21.6779 11.3755 21.7955 11.4217 21.8925 11.4985C21.9894 11.5752 22.0615 11.679 22.0994 11.7966C22.1374 11.9143 22.1396 12.0406 22.1058 12.1596C22.0719 12.2785 22.0036 12.3847 21.9094 12.4648L18.3852 15.539Z" fill="#1C1C1C" fill-opacity="0.1"/>
<path d="M22.6875 11.6007C22.6118 11.3675 22.4692 11.1616 22.2773 11.0088C22.0855 10.856 21.8529 10.763 21.6086 10.7414L16.9688 10.3414L15.15 6.01637C15.0553 5.78943 14.8956 5.59558 14.691 5.45923C14.4863 5.32288 14.2459 5.25012 14 5.25012C13.7541 5.25012 13.5137 5.32288 13.3091 5.45923C13.1044 5.59558 12.9447 5.78943 12.85 6.01637L11.0367 10.3414L6.39141 10.7437C6.14612 10.7643 5.91238 10.8569 5.7195 11.0098C5.52662 11.1627 5.38318 11.3692 5.30717 11.6033C5.23116 11.8375 5.22596 12.0888 5.29223 12.3259C5.3585 12.5629 5.49329 12.7751 5.67969 12.9359L9.20391 16.0156L8.14766 20.589C8.09181 20.8284 8.10774 21.0788 8.19348 21.3092C8.27921 21.5395 8.43094 21.7394 8.62969 21.884C8.82843 22.0285 9.06539 22.1113 9.31092 22.1219C9.55645 22.1326 9.79967 22.0706 10.0102 21.9437L13.9945 19.5218L17.9875 21.9437C18.198 22.0706 18.4412 22.1326 18.6867 22.1219C18.9323 22.1113 19.1692 22.0285 19.368 21.884C19.5667 21.7394 19.7184 21.5395 19.8042 21.3092C19.8899 21.0788 19.9059 20.8284 19.85 20.589L18.7945 16.0109L22.318 12.9359C22.5043 12.7746 22.6389 12.5618 22.7046 12.3242C22.7704 12.0866 22.7644 11.8349 22.6875 11.6007ZM21.4984 11.9914L17.975 15.0664C17.8035 15.2155 17.6759 15.4086 17.606 15.6249C17.5361 15.8412 17.5264 16.0724 17.5781 16.2937L18.6367 20.875L14.6469 18.4531C14.4522 18.3345 14.2287 18.2718 14.0008 18.2718C13.7729 18.2718 13.5493 18.3345 13.3547 18.4531L9.37031 20.875L10.4219 16.2968C10.4736 16.0755 10.4639 15.8443 10.394 15.628C10.3241 15.4118 10.1965 15.2187 10.025 15.0695L6.5 11.9961C6.49972 11.9937 6.49972 11.9914 6.5 11.989L11.1438 11.5875C11.3705 11.5675 11.5874 11.486 11.7712 11.3517C11.955 11.2175 12.0987 11.0356 12.1867 10.8257L14 6.50622L15.8125 10.8257C15.9005 11.0356 16.0442 11.2175 16.228 11.3517C16.4118 11.486 16.6287 11.5675 16.8555 11.5875L21.5 11.989C21.5 11.989 21.5 11.9937 21.5 11.9945L21.4984 11.9914Z" fill="#1C1C1C"/>
</svg>
