<svg width="51" height="10" viewBox="0 0 51 10" fill="none" xmlns="http://www.w3.org/2000/svg">
<path d="M41.8381 5.71435L41.8381 0.714355H40.4286V5.71435C40.4286 7.6868 42.0062 9.28578 43.9524 9.28578C45.8985 9.28578 47.4762 7.6868 47.4762 5.71435L47.4762 0.714355H46.0667L46.0667 5.71435C46.0667 6.89782 45.1201 7.85721 43.9524 7.85721C42.7847 7.85721 41.8381 6.89782 41.8381 5.71435Z" fill="#4F507F"/>
<path d="M41.8381 5.71435L41.8381 0.714355H40.4286V5.71435C40.4286 7.6868 42.0062 9.28578 43.9524 9.28578C45.8985 9.28578 47.4762 7.6868 47.4762 5.71435L47.4762 0.714355H46.0667L46.0667 5.71435C46.0667 6.89782 45.1201 7.85721 43.9524 7.85721C42.7847 7.85721 41.8381 6.89782 41.8381 5.71435Z" fill="white" fill-opacity="0.4" style="mix-blend-mode:hard-light"/>
<path d="M49.5905 0.714355V9.28578H51V0.714355H49.5905Z" fill="#4F507F"/>
<path d="M49.5905 0.714355V9.28578H51V0.714355H49.5905Z" fill="white" fill-opacity="0.4" style="mix-blend-mode:hard-light"/>
<path d="M6.42483 8.64118C5.83821 9.07672 5.04993 9.28578 4.06001 9.28578C3.45505 9.28578 2.90509 9.19868 2.41013 9.04188C1.91517 8.88509 1.42021 8.67603 0.961906 8.39728L1.5302 7.16035C1.9885 7.45651 2.41013 7.64815 2.81343 7.7701C3.21674 7.89206 3.62004 7.96174 4.00501 7.96174C4.5733 7.96174 4.99494 7.87463 5.30658 7.683C5.59989 7.49136 5.74655 7.23003 5.74655 6.8816C5.74655 6.49833 5.58156 6.20216 5.23325 6.01052C4.88495 5.81888 4.44498 5.62725 3.91335 5.43561C3.12508 5.15686 2.50179 4.84328 2.04349 4.49484C1.56686 4.14641 1.32855 3.64118 1.31021 2.97916C1.29188 2.26488 1.56686 1.70739 2.13515 1.30669C2.70344 0.905993 3.43672 0.714355 4.35332 0.714355C4.81162 0.714355 5.25159 0.76662 5.69155 0.888571C6.13152 1.01052 6.55315 1.18474 6.93813 1.42864L6.36983 2.61331C6.02153 2.42167 5.69155 2.2823 5.37991 2.17777C5.04993 2.07324 4.70163 2.02098 4.35332 2.02098C3.89502 2.02098 3.52838 2.09066 3.2534 2.24746C2.97842 2.40425 2.8501 2.64815 2.8501 2.96174C2.8501 3.31017 3.03342 3.5715 3.38173 3.74571C3.73003 3.91993 4.18833 4.11157 4.71996 4.32063C5.50823 4.59937 6.13152 4.91296 6.60815 5.27882C7.06645 5.64467 7.30476 6.14989 7.30476 6.82934C7.30476 7.61331 7.01145 8.20564 6.42483 8.64118Z" fill="#4F507F"/>
<path d="M15.0571 4.28578V9.28578H16.4667V4.28578C16.4667 2.31334 14.889 0.714355 12.9429 0.714355C10.9967 0.714355 9.41905 2.31334 9.41905 4.28578V9.28578H10.8286V4.28578C10.8286 3.10232 11.7752 2.14293 12.9429 2.14293C14.1105 2.14293 15.0571 3.10232 15.0571 4.28578Z" fill="#4F507F"/>
<path fill-rule="evenodd" clip-rule="evenodd" d="M27.0381 5.00007C27.0381 7.367 25.1449 9.28578 22.8095 9.28578C20.4741 9.28578 18.581 7.367 18.581 5.00007C18.581 2.63313 20.4741 0.714355 22.8095 0.714355C25.1449 0.714355 27.0381 2.63313 27.0381 5.00007ZM25.6286 5.00007C25.6286 6.57803 24.3664 7.85721 22.8095 7.85721C21.2526 7.85721 19.9905 6.57803 19.9905 5.00007C19.9905 3.42211 21.2526 2.14293 22.8095 2.14293C24.3664 2.14293 25.6286 3.42211 25.6286 5.00007Z" fill="#4F507F"/>
<path d="M28.4476 0.714355L29.776 8.10832C30.0516 9.64207 32.0722 9.69177 32.4124 8.17318L33.1999 3.95851C33.2288 3.80368 33.4336 3.80684 33.4585 3.9625L34.1211 8.11057C34.4152 9.6419 36.4389 9.66159 36.7586 8.13624L38.3143 0.714355H36.9462L35.5774 7.82893C35.548 7.98188 35.3462 7.97987 35.3194 7.82636L34.076 0.714355H32.699L31.2429 7.84986C31.2118 8.00227 31.0103 7.9978 30.985 7.84413L29.8092 0.714355H28.4476Z" fill="#4F507F"/>
</svg>
