<svg width="20" height="20" viewBox="0 0 20 20" fill="none" xmlns="http://www.w3.org/2000/svg">
<path d="M16.7733 7C18.4081 7 19.7333 8.34315 19.7333 10C19.7333 11.6569 18.4081 13 16.7733 13L2.96 13C1.32524 13 -7.14578e-08 11.6569 0 10C7.14578e-08 8.34315 1.32524 7 2.96 7L16.7733 7Z" fill="#7094F4"/>
<path d="M6.90667 3C6.90667 1.34315 8.2319 0 9.86667 0C11.5014 0 12.8267 1.34315 12.8267 3V17C12.8267 18.6569 11.5014 20 9.86667 20C8.2319 20 6.90667 18.6569 6.90667 17V3Z" fill="#7094F4"/>
<path d="M6.90667 3C6.90667 1.34315 8.2319 0 9.86667 0C11.5014 0 12.8267 1.34315 12.8267 3V17C12.8267 18.6569 11.5014 20 9.86667 20C8.2319 20 6.90667 18.6569 6.90667 17V3Z" fill="white" fill-opacity="0.4" style="mix-blend-mode:screen"/>
<path d="M16.8439 12.8288C17.9999 14.0004 17.9999 15.9 16.8439 17.0716C15.6879 18.2432 13.8137 18.2432 12.6577 17.0716L2.88991 7.17178C1.73392 6.00017 1.73392 4.10061 2.88991 2.929C4.0459 1.75739 5.92013 1.75739 7.07611 2.929L16.8439 12.8288Z" fill="#7094F4"/>
<path d="M16.8439 12.8288C17.9999 14.0004 17.9999 15.9 16.8439 17.0716C15.6879 18.2432 13.8137 18.2432 12.6577 17.0716L2.88991 7.17178C1.73392 6.00017 1.73392 4.10061 2.88991 2.929C4.0459 1.75739 5.92013 1.75739 7.07611 2.929L16.8439 12.8288Z" fill="white" fill-opacity="0.2" style="mix-blend-mode:soft-light"/>
<path d="M12.6577 2.929C13.8137 1.75739 15.6879 1.75739 16.8439 2.929C17.9999 4.10061 17.9999 6.00017 16.8439 7.17178L7.07611 17.0716C5.92012 18.2432 4.0459 18.2432 2.88991 17.0716C1.73392 15.9 1.73392 14.0004 2.88991 12.8288L12.6577 2.929Z" fill="#7094F4"/>
<path d="M12.6577 2.929C13.8137 1.75739 15.6879 1.75739 16.8439 2.929C17.9999 4.10061 17.9999 6.00017 16.8439 7.17178L7.07611 17.0716C5.92012 18.2432 4.0459 18.2432 2.88991 17.0716C1.73392 15.9 1.73392 14.0004 2.88991 12.8288L12.6577 2.929Z" fill="white" fill-opacity="0.3" style="mix-blend-mode:overlay"/>
<path fill-rule="evenodd" clip-rule="evenodd" d="M9.86667 3C9.6487 3 9.472 3.17909 9.472 3.4V8.64804C9.472 8.7692 9.472 8.82978 9.44836 8.85784C9.42785 8.88218 9.39708 8.89509 9.36559 8.89258C9.3293 8.88969 9.28704 8.84685 9.2025 8.76118L5.54106 5.05025C5.38693 4.89404 5.13705 4.89404 4.98292 5.05025C4.82879 5.20646 4.82879 5.45973 4.98292 5.61594L8.64436 9.32686C8.7289 9.41254 8.77116 9.45538 8.77402 9.49215C8.7765 9.52407 8.76375 9.55525 8.73973 9.57604C8.71206 9.6 8.65228 9.6 8.53273 9.6H3.35467C3.1367 9.6 2.96 9.77909 2.96 10C2.96 10.2209 3.1367 10.4 3.35467 10.4H8.53274C8.65228 10.4 8.71206 10.4 8.73974 10.424C8.76375 10.4447 8.7765 10.4759 8.77402 10.5078C8.77116 10.5446 8.7289 10.5875 8.64436 10.6731L4.98292 14.3841C4.82879 14.5403 4.82879 14.7935 4.98292 14.9497C5.13704 15.106 5.38693 15.106 5.54106 14.9497L9.2025 11.2388C9.28704 11.1531 9.3293 11.1103 9.36559 11.1074C9.39708 11.1049 9.42785 11.1178 9.44836 11.1422C9.472 11.1702 9.472 11.2308 9.472 11.352V16.6C9.472 16.8209 9.6487 17 9.86667 17C10.0846 17 10.2613 16.8209 10.2613 16.6V11.352C10.2613 11.2308 10.2613 11.1702 10.285 11.1422C10.3055 11.1178 10.3363 11.1049 10.3677 11.1074C10.404 11.1103 10.4463 11.1531 10.5308 11.2388L14.1923 14.9497C14.3464 15.106 14.5963 15.106 14.7504 14.9497C14.9045 14.7935 14.9045 14.5403 14.7504 14.3841L11.089 10.6731C11.0044 10.5875 10.9622 10.5446 10.9593 10.5078C10.9568 10.4759 10.9696 10.4447 10.9936 10.424C11.0213 10.4 11.0811 10.4 11.2006 10.4H16.3787C16.5966 10.4 16.7733 10.2209 16.7733 10C16.7733 9.77909 16.5966 9.6 16.3787 9.6H11.2006C11.0811 9.6 11.0213 9.6 10.9936 9.57604C10.9696 9.55525 10.9568 9.52407 10.9593 9.49215C10.9622 9.45538 11.0044 9.41254 11.089 9.32686L14.7504 5.61594C14.9045 5.45973 14.9045 5.20646 14.7504 5.05025C14.5963 4.89404 14.3464 4.89404 14.1923 5.05025L10.5308 8.76118C10.4463 8.84685 10.404 8.88969 10.3677 8.89259C10.3363 8.8951 10.3055 8.88218 10.285 8.85784C10.2613 8.82979 10.2613 8.76921 10.2613 8.64804V3.4C10.2613 3.17909 10.0846 3 9.86667 3Z" fill="white"/>
</svg>
